<svg width="40" height="40" viewBox="0 0 40 40" fill="none" xmlns="http://www.w3.org/2000/svg">
<path d="M4.00011 23.9999C9.57035 23.9999 12.5471 24.6055 13.9687 26.0272C15.3907 27.4529 16.0001 30.4334 16.0001 35.9999C16.0001 38.2109 17.7892 40 20.0002 40C22.2112 40 24.0003 38.2109 24.0003 35.9999C24.0003 30.4334 24.6097 27.4529 26.0317 26.0272C27.4533 24.6055 30.4297 23.9999 35.9999 23.9999C38.2109 23.9999 40 22.2108 40 19.9998C40 17.7888 38.2109 15.9997 35.9999 15.9997C30.4297 15.9997 27.4529 15.3941 26.0313 13.9725C24.6093 12.5467 23.9999 9.56622 23.9999 3.99974C23.9999 1.78912 22.2108 0 20.0002 0C17.7896 0 16.0001 1.78912 16.0001 4.00011C16.0001 9.5666 15.3907 12.5471 13.9687 13.9728C12.5467 15.3948 9.57035 16.0001 4.00011 16.0001C1.78912 16.0001 0 17.7892 0 20.0002C0 22.2108 1.78912 23.9999 4.00011 23.9999ZM19.6252 19.6289C19.7501 19.4999 19.8753 19.3709 20.0002 19.2382C20.1176 19.3709 20.2424 19.4999 20.3752 19.6289C20.5001 19.7538 20.6332 19.8791 20.7581 20.0002C20.6332 20.1213 20.5001 20.2424 20.3752 20.3714C20.2503 20.5004 20.1251 20.6294 20.0002 20.7622C19.8828 20.6294 19.7579 20.5004 19.6252 20.3714C19.4999 20.2466 19.3672 20.1213 19.2423 20.0002C19.3672 19.8787 19.4999 19.7576 19.6252 19.6289Z" fill="#FFE2D4"/>
</svg>
