<svg width="392" height="393" viewBox="0 0 392 393" fill="none" xmlns="http://www.w3.org/2000/svg">
<path d="M77.2987 208.863L77.8857 213.621L78.6495 218.328L79.5905 222.969L80.7263 227.543L82.0217 232.049L83.4948 236.47L85.1274 240.824L86.9377 245.093L88.9079 249.277L91.021 253.359L93.294 257.355L95.7095 261.266L98.2681 265.056L100.97 268.743L103.814 272.327L106.801 275.809L109.896 279.151L113.134 282.391L116.481 285.492L119.953 288.472L123.551 291.314L127.24 294.034L131.054 296.599L134.96 299.024L138.957 301.292L143.062 303.422L147.259 305.378L151.546 307.195L155.907 308.837L160.36 310.305L164.887 311.599L169.488 312.735L174.145 313.679L178.877 314.432L183.682 315.009L188.527 315.394L193.446 315.587L198.351 315.569L203.226 315.357L208.034 314.95L212.794 314.366L217.504 313.589L222.148 312.616L226.726 311.484L231.219 310.175L235.663 308.69L240.005 307.026L244.279 305.221L248.47 303.239L252.575 301.114L256.579 298.829L260.48 296.402L264.296 293.815L267.992 291.103L271.585 288.249L275.058 285.269L278.428 282.146L281.677 278.917L284.789 275.544L287.78 272.063L290.632 268.474L293.346 264.778L295.94 260.956L298.377 257.044L300.658 253.041L302.783 248.929L304.769 244.728L306.581 240.435L308.236 236.069L309.736 231.612L311.043 227.082L312.176 222.479L313.134 217.801L313.918 213.069L314.51 208.279L314.91 203.417L315.099 198.515L315.113 193.61L314.916 188.737L314.523 183.93L313.936 179.173L313.172 174.465L312.231 169.824L311.113 165.251L309.8 160.762L308.327 156.323L306.694 151.969L304.884 147.718L302.931 143.534L300.818 139.435L298.545 135.439L296.112 131.546L293.554 127.738L290.852 124.05L288.008 120.466L285.038 116.985L281.926 113.642L278.687 110.402L275.341 107.301L271.869 104.321L268.288 101.48L264.582 98.7592L260.785 96.1952L256.879 93.77L252.865 91.501L248.76 89.3711L244.563 87.4153L240.293 85.5989L235.914 83.9564L231.479 82.4887L226.952 81.1951L222.351 80.0585L217.677 79.114L212.945 78.3618L208.157 77.7844L203.295 77.3992L198.394 77.2066L199.358 30.7571L206.174 31.0189L212.915 31.5431L219.579 32.3472L226.168 33.3961L232.646 34.7067L239.049 36.2797L245.323 38.079L251.505 40.1403L257.576 42.4107L263.537 44.9252L269.37 47.6485L275.076 50.598L280.636 53.7735L286.07 57.1401L291.358 60.6975L296.502 64.4634L301.484 68.4197L306.303 72.5666L310.96 76.8864L315.456 81.3791L319.773 86.0269L323.909 90.8648L327.868 95.8403L331.612 100.97L335.177 106.255L338.545 111.677L341.7 117.236L344.642 122.914L347.369 128.729L349.883 134.664L352.167 140.699L354.202 146.854L356.006 153.109L357.579 159.466L358.887 165.924L359.965 172.448L360.759 179.073L361.306 185.764L361.57 192.519L361.569 199.341L361.287 206.157L360.742 212.916L359.918 219.582L358.85 226.156L357.502 232.655L355.927 239.044L354.091 245.34L352.029 251.527L349.74 257.605L347.208 263.555L344.449 269.396L341.482 275.109L338.308 280.679L334.924 286.122L331.333 291.42L327.552 296.574L323.597 301.567L319.435 306.416L315.101 311.086L310.595 315.577L305.916 319.907L301.083 324.058L296.095 328.03L290.953 331.807L285.657 335.387L280.224 338.754L274.655 341.925L268.967 344.901L263.143 347.645L257.201 350.159L251.14 352.46L244.979 354.531L238.717 356.353L232.372 357.928L225.91 359.273L219.382 360.352L212.754 361.166L206.061 361.733L199.304 362.017L192.482 362.037L185.648 361.775L178.907 361.25L172.242 360.446L165.671 359.398L159.175 358.087L152.79 356.514L146.498 354.714L140.317 352.671L134.246 350.383L128.285 347.868L122.469 345.145L116.763 342.196L111.185 339.02L105.752 335.653L100.463 332.096L95.3372 328.33L90.3557 324.374L85.5188 320.227L80.8614 315.907L76.3657 311.414L72.049 306.767L67.9119 301.946L63.9716 296.953L60.2101 291.823L56.6451 286.538L53.2764 281.116L50.1215 275.557L47.1801 269.879L44.4526 264.064L41.956 258.13L39.6725 252.094L37.6201 245.94L35.8159 239.684L34.26 233.327L32.9344 226.887L31.8746 220.345L31.0624 213.738L30.5331 207.048L30.2517 200.274L30.2526 193.453L76.7224 194.279L76.726 199.184L76.9238 204.057L77.2987 208.863Z" fill="#E28355" fill-opacity="0.25"/>
</svg>
