<svg width="514" height="515" viewBox="0 0 514 515" fill="none" xmlns="http://www.w3.org/2000/svg">
<path d="M338.412 170.586L334.865 167.361L331.217 164.29L327.478 161.384L323.635 158.657L319.715 156.085L315.715 153.692L311.639 151.455L307.483 149.398L303.261 147.51L298.998 145.793L294.669 144.245L290.288 142.855L285.877 141.649L281.424 140.614L276.931 139.751L272.396 139.058L267.87 138.542L263.302 138.196L258.743 138.027L254.167 138.031L249.586 138.222L245.016 138.564L240.452 139.106L235.909 139.814L231.399 140.699L226.898 141.76L222.441 143.014L218.005 144.431L213.628 146.029L209.294 147.819L205.018 149.79L200.789 151.927L196.642 154.248L192.564 156.762L188.543 159.457L184.619 162.324L180.763 165.384L177.055 168.596L173.498 171.935L170.117 175.379L166.888 178.924L163.824 182.585L160.936 186.35L158.203 190.192L155.65 194.114L153.249 198.138L151.041 202.23L148.976 206.386L147.091 210.621L145.363 214.909L143.817 219.251L142.442 223.635L141.235 228.084L140.201 232.55L139.337 237.057L138.646 241.581L138.127 246.146L137.768 250.713L137.608 255.299L137.609 259.888L137.786 264.469L138.138 269.042L138.663 273.63L139.366 278.186L140.246 282.708L141.315 287.211L142.549 291.692L143.973 296.128L145.564 300.518L147.333 304.874L149.295 309.162L151.438 313.391L153.76 317.563L156.251 321.662L158.925 325.68L161.792 329.627L164.844 333.468L168.031 337.196L171.358 340.763L174.79 344.151L178.336 347.376L181.985 350.448L185.724 353.353L189.553 356.092L193.476 358.639L197.486 361.045L201.563 363.282L205.708 365.325L209.916 367.225L214.19 368.955L218.519 370.503L222.902 371.869L227.325 373.088L231.777 374.123L236.271 374.987L240.792 375.69L245.332 376.196L249.899 376.541L254.458 376.711L259.034 376.707L263.601 376.527L268.185 376.174L272.736 375.642L277.279 374.935L281.802 374.038L286.303 372.977L290.761 371.724L295.183 370.317L299.574 368.708L303.894 366.929L308.17 364.959L312.399 362.821L316.56 360.49L320.638 357.975L324.645 355.291L328.583 352.414L332.425 349.364L361.976 385.213L356.637 389.459L351.184 393.456L345.607 397.191L339.927 400.692L334.16 403.921L328.28 406.903L322.349 409.629L316.318 412.096L310.234 414.333L304.075 416.312L297.876 418.05L291.627 419.534L285.341 420.751L279.026 421.741L272.696 422.491L266.341 422.989L259.984 423.237L253.627 423.234L247.279 422.995L240.941 422.52L234.638 421.81L228.347 420.838L222.102 419.646L215.918 418.197L209.77 416.514L203.68 414.599L197.664 412.441L191.732 410.053L185.872 407.422L180.097 404.561L174.431 401.473L168.875 398.133L163.429 394.566L158.091 390.772L152.889 386.727L147.819 382.483L142.897 377.978L138.121 373.261L133.516 368.311L129.07 363.138L124.84 357.785L120.846 352.305L117.125 346.713L113.649 341.032L110.434 335.226L107.463 329.355L104.75 323.383L102.28 317.347L100.053 311.247L98.0943 305.084L96.3782 298.857L94.9027 292.59L93.679 286.297L92.696 279.964L91.9648 273.605L91.4718 267.232L91.2148 260.868L91.2096 254.478L91.4515 248.111L91.9406 241.768L92.6655 235.434L93.624 229.136L94.8162 222.872L96.2531 216.656L97.9348 210.488L99.8589 204.394L102.014 198.358L104.387 192.394L107.014 186.516L109.881 180.735L112.976 175.039L116.298 169.452L119.858 163.988L123.642 158.657L127.666 153.424L131.912 148.35L136.407 143.412L141.113 138.619L146.051 133.997L151.211 129.535L156.564 125.278L162.017 121.281L167.595 117.546L173.261 114.057L179.041 110.816L184.908 107.846L190.852 105.108L196.872 102.628L202.967 100.405L209.126 98.425L215.311 96.6979L221.561 95.2146L227.861 93.9861L234.176 92.9967L240.505 92.2462L246.847 91.7594L253.203 91.5116L259.575 91.5028L265.923 91.7419L272.261 92.2176L278.564 92.9276L284.844 93.8854L291.086 95.1023L297.283 96.5399L303.432 98.2231L309.521 100.138L315.538 102.296L321.47 104.684L327.329 107.315L333.091 110.187L338.757 113.275L344.326 116.604L349.773 120.171L355.097 123.977L360.301 127.996L365.369 132.265L370.293 136.746L375.056 141.474L379.685 146.426L384.132 151.599L348.357 181.269L345.157 177.552L341.829 173.986L338.412 170.586Z" fill="#F0DFFF" fill-opacity="0.25"/>
</svg>
