<svg width="111" height="98" viewBox="0 0 111 98" fill="none" xmlns="http://www.w3.org/2000/svg">
<path d="M112.494 58.8938L112.086 57.1138L111.614 55.3594L111.077 53.6374L110.469 51.9483L109.803 50.291L109.073 48.6727L108.285 47.0862L107.433 45.5387L106.523 44.0296L105.564 42.5652L104.547 41.1391L103.48 39.751L102.363 38.4141L101.196 37.1218L99.9786 35.874L98.7113 34.6708L97.4083 33.5244L96.0552 32.4225L94.6665 31.3774L93.2348 30.383L91.7608 29.446L90.2573 28.5585L88.7119 27.735L87.1375 26.9677L85.5347 26.2634L83.8962 25.6158L82.2298 25.0377L80.5344 24.5159L78.8177 24.0631L77.0732 23.6799L75.3073 23.3657L73.5198 23.1138L71.7181 22.937L69.8958 22.8359L68.0522 22.8037L66.2013 22.8462L64.3297 22.9643L62.4713 23.1619L60.6323 23.4318L58.8259 23.7729L57.045 24.1791L55.2901 24.6569L53.5679 25.2059L51.8773 25.8127L50.2255 26.4835L48.5992 27.2192L47.0183 28.0184L45.4685 28.8687L43.9575 29.7829L42.4843 30.7476L41.0559 31.7691L39.672 32.8405L38.3264 33.9692L37.0312 35.1406L35.7805 36.3621L34.5803 37.6264L33.4244 38.9406L32.3186 40.2909L31.2705 41.6901L30.2724 43.1254L29.3309 44.5962L28.446 46.1026L27.6117 47.6517L26.8402 49.2291L26.1315 50.8348L25.486 52.4754L24.8967 54.1449L24.3769 55.8422L23.9192 57.561L23.5244 59.3081L23.2051 61.0757L22.9547 62.8644L22.7733 64.6741L22.6602 66.4982L22.6221 68.3361L22.6596 70.1945L22.7783 72.0594L22.9637 73.9187L23.228 75.7579L23.5636 77.5642L23.971 79.3442L24.4435 81.0986L24.9805 82.8206L25.582 84.5102L26.2542 86.1603L26.9849 87.7853L27.7728 89.3718L28.6243 90.9126L29.5269 92.4222L30.4868 93.8934L31.5036 95.3194L32.5771 96.7003L33.6946 98.0439L34.8617 99.3362L36.0789 100.584L37.3395 101.788L38.6492 102.934L40.0022 104.035L41.391 105.081L42.8227 106.075L44.29 107.013L45.8002 107.9L47.3389 108.724L48.9133 109.491L50.5228 110.195L52.1613 110.842L53.8277 111.42L55.5164 111.943L57.2398 112.395L58.9776 112.779L60.7435 113.093L62.531 113.345L64.3393 113.521L66.1617 113.622L67.9986 113.655L69.8561 113.612L71.7211 113.494L73.1613 131.134L70.568 131.3L67.9931 131.364L65.4363 131.318L62.8985 131.177L60.3926 130.932L57.9052 130.584L55.4574 130.146L53.0348 129.606L50.6457 128.981L48.289 128.26L45.9724 127.455L43.6955 126.559L41.4649 125.572L39.275 124.507L37.1325 123.364L35.0369 122.137L32.9953 120.832L31.0077 119.447L29.0748 117.991L27.1965 116.464L25.38 114.87L23.6242 113.197L21.9308 111.466L20.3125 109.667L18.7561 107.803L17.2687 105.879L15.857 103.895L14.5216 101.858L13.2619 99.7601L12.0785 97.6089L10.9785 95.4104L9.96814 93.1572L9.04125 90.8566L8.19783 88.5087L7.45123 86.1122L6.7892 83.6817L6.23066 81.2021L5.76336 78.6879L5.40064 76.138L5.13583 73.5529L4.97778 70.9587L4.92145 68.3761L4.97461 65.8179L5.12391 63.2851L5.38216 60.77L5.73041 58.2875L6.18149 55.83L6.72258 53.4052L7.35368 51.013L8.08201 48.6597L8.90035 46.3391L9.80259 44.0584L10.7892 41.8244L11.8598 39.6303L13.0148 37.4828L14.2475 35.3825L15.5519 33.3366L16.9407 31.3373L18.4017 29.3991L19.9348 27.522L21.5396 25.6994L23.2099 23.9383L24.9457 22.239L26.7475 20.608L28.6154 19.0453L30.5432 17.5582L32.5304 16.14L34.5703 14.7912L36.6706 13.5247L38.8247 12.341L41.0321 11.2335L43.2866 10.2093L45.5888 9.27519L47.932 8.43169L50.3289 7.671L52.7607 7.00814L55.2408 6.44202L57.7551 5.96711L60.3049 5.59669L62.8895 5.32414L65.4895 5.15781L68.0643 5.09443L70.6212 5.14008L73.1523 5.282L75.6649 5.52631L78.1457 5.87411L80.6001 6.31149L83.0222 6.84571L85.4118 7.47678L87.7685 8.19797L90.0784 9.00378L92.3553 9.89975L94.5925 10.8864L96.7824 11.9511L98.9249 13.0936L101.014 14.3214L103.056 15.627L105.05 17.0106L106.983 18.4666L108.861 19.9944L110.678 21.588L112.433 23.2539L114.12 24.9928L115.745 26.7907L117.301 28.655L118.789 30.5788L120.2 32.5628L121.536 34.6002L122.796 36.6979L123.972 38.8496L125.072 41.0482L126.089 43.3008L127.016 45.6014L127.853 47.9499L128.606 50.3391L129.262 52.7769L129.826 55.2492L130.287 57.764L130.657 60.32L130.922 62.9051L113.279 64.3986L113.087 62.5398L112.823 60.7006L112.494 58.8938Z" fill="#F5ECF1"/>
</svg>
