<svg width="513" height="510" viewBox="0 0 513 510" fill="none" xmlns="http://www.w3.org/2000/svg">
<g clip-path="url(#clip0)">
<path d="M425.66 69.4771C396.854 50.5027 392.587 9.92699 416.816 -14.6248V-14.6248C436.623 -34.6959 468.443 -36.4202 490.303 -18.607L492.94 -16.4578C518.556 4.41541 519.867 43.0931 495.724 65.6529V65.6529C477.321 82.8487 449.535 85.203 428.502 71.3486L425.66 69.4771Z" fill="url(#paint0_linear)" fill-opacity="0.1"/>
<path d="M-168.578 289.155C-205.774 265.285 -211.813 213.343 -181.086 181.575L107.441 -116.716C132.717 -142.847 173.79 -145.28 201.974 -122.314L479.981 104.226C512.555 130.77 514.567 179.83 484.276 208.952L212.738 470.013C189.386 492.464 153.68 495.959 126.418 478.464L-168.578 289.155Z" fill="url(#paint1_linear)"/>
</g>
<defs>
<linearGradient id="paint0_linear" x1="480.084" y1="-23.935" x2="431.608" y2="62.1526" gradientUnits="userSpaceOnUse">
<stop stop-color="#D25C7D"/>
<stop offset="1" stop-color="#FBB7B3"/>
</linearGradient>
<linearGradient id="paint1_linear" x1="274.412" y1="-48.7186" x2="48.1168" y2="372.45" gradientUnits="userSpaceOnUse">
<stop stop-color="#D25C7D"/>
<stop offset="1" stop-color="#FBB7B3"/>
</linearGradient>
<clipPath id="clip0">
<rect width="513" height="510" fill="white"/>
</clipPath>
</defs>
</svg>
