<svg width="271" height="59" viewBox="0 0 271 59" fill="none" xmlns="http://www.w3.org/2000/svg">
<g filter="url(#filter0_dd)">
<circle cx="29" cy="26" r="25" fill="#FFE3EE"/>
</g>
<g clip-path="url(#clip0)">
<path d="M29 30C31.198 30 33.1014 29.2116 34.6565 27.6562C36.2117 26.101 37 24.1981 37 21.9997C37 19.8021 36.2117 17.899 34.6563 16.3433C33.1009 14.7884 31.1978 14 29 14C26.8017 14 24.8989 14.7884 23.3437 16.3436C21.7886 17.8988 21 19.8019 21 21.9997C21 24.1981 21.7886 26.1012 23.344 27.6564C24.8994 29.2114 26.8025 30 29 30Z" fill="#971E44"/>
<path d="M43.5955 39.5863C43.548 38.933 43.452 38.2203 43.3106 37.4677C43.1679 36.7095 42.9842 35.9927 42.7642 35.3376C42.537 34.6605 42.228 33.9918 41.846 33.351C41.4496 32.686 40.9839 32.1068 40.4614 31.6302C39.915 31.1317 39.246 30.7308 38.4723 30.4384C37.7014 30.1476 36.8471 30.0003 35.9332 30.0003C35.5743 30.0003 35.2272 30.1407 34.5568 30.5569C34.1443 30.8135 33.6617 31.1102 33.1231 31.4384C32.6625 31.7182 32.0386 31.9804 31.2679 32.2178C30.516 32.4498 29.7526 32.5675 28.9991 32.5675C28.2456 32.5675 27.4825 32.4498 26.7298 32.2178C25.9599 31.9807 25.336 31.7185 24.876 31.4386C24.3424 31.1135 23.8596 30.8168 23.4409 30.5566C22.7713 30.1404 22.424 30 22.0651 30C21.1509 30 20.2968 30.1476 19.5261 30.4387C18.7531 30.7306 18.0838 31.1314 17.5369 31.6305C17.0146 32.1073 16.5487 32.6862 16.1527 33.351C15.771 33.9918 15.462 34.6603 15.2345 35.3379C15.0149 35.993 14.8311 36.7095 14.6884 37.4677C14.547 38.2193 14.451 38.9322 14.4035 39.5871C14.3569 40.2286 14.3333 40.8945 14.3333 41.567C14.3333 43.3172 14.9167 44.7341 16.0672 45.7791C17.2034 46.8102 18.7069 47.3333 20.5353 47.3333H37.4646C39.2929 47.3333 40.7959 46.8105 41.9324 45.7791C43.0832 44.7349 43.6666 43.3177 43.6666 41.5667C43.6663 40.8911 43.6424 40.2248 43.5955 39.5863Z" fill="#971E44"/>
</g>
<path d="M161.946 16.05C159.212 13.3167 154.781 13.3167 152.047 16.05L146.803 21.289C146.659 21.4337 146.618 21.6514 146.698 21.839C146.778 22.0271 146.964 22.1478 147.168 22.1439H147.353C148.448 22.1419 149.534 22.3541 150.548 22.7688C150.735 22.8458 150.95 22.8024 151.092 22.6588L154.857 18.8995C156.029 17.7275 157.929 17.7275 159.101 18.8995C160.273 20.0715 160.273 21.9717 159.101 23.1437L154.412 27.8279L154.372 27.8728L152.732 29.5026C151.561 30.6722 149.664 30.6722 148.493 29.5026C147.704 28.7598 146.473 28.7598 145.683 29.5026C145.342 29.845 145.136 30.2997 145.103 30.7823C145.067 31.355 145.278 31.9158 145.683 32.3221C146.262 32.9032 146.939 33.377 147.683 33.7218C147.788 33.7718 147.893 33.8118 147.998 33.8568C148.103 33.9018 148.213 33.9367 148.318 33.9768C148.423 34.0168 148.533 34.0517 148.638 34.0817L148.933 34.1617C149.133 34.2117 149.333 34.2517 149.538 34.2867C149.784 34.3233 150.033 34.3467 150.282 34.3567H150.632H150.662L150.962 34.3217C151.072 34.3167 151.187 34.2917 151.317 34.2917H151.487L151.832 34.2417L151.992 34.2117L152.282 34.1517H152.337C153.565 33.8433 154.686 33.2075 155.582 32.3121L161.945 25.9482C164.679 23.2149 164.679 18.7833 161.946 16.05Z" fill="#971E44"/>
<path d="M152.302 25.6932C151.947 25.3357 151.553 25.0189 151.127 24.7484C150.001 24.0269 148.691 23.6436 147.353 23.6436C145.496 23.6401 143.715 24.3779 142.404 25.6932L136.045 32.0571C134.737 33.3681 134.001 35.1444 134 36.9967C133.998 40.862 137.129 43.9974 140.994 43.9999C142.848 44.0063 144.628 43.2721 145.938 41.9603L151.187 36.7112C151.283 36.6166 151.336 36.4876 151.335 36.3534C151.334 36.0773 151.109 35.8548 150.832 35.8564H150.633C149.536 35.8602 148.449 35.6496 147.433 35.2365C147.246 35.1594 147.031 35.2029 146.888 35.3464L143.114 39.1258C141.942 40.2978 140.042 40.2978 138.87 39.1258C137.698 37.9537 137.698 36.0535 138.87 34.8815L145.254 28.5027C146.425 27.3331 148.322 27.3331 149.493 28.5027C150.282 29.2455 151.513 29.2455 152.302 28.5027C152.642 28.1629 152.848 27.7121 152.882 27.2329C152.919 26.6603 152.708 26.0994 152.302 25.6932Z" fill="#971E44"/>
<line x1="169" y1="28.5" x2="179" y2="28.5" stroke="#971E44" stroke-width="3"/>
<line x1="218" y1="28.5" x2="228" y2="28.5" stroke="#971E44" stroke-width="3"/>
<line x1="186" y1="28.5" x2="196" y2="28.5" stroke="#971E44" stroke-width="3"/>
<line x1="202" y1="28.5" x2="212" y2="28.5" stroke="#971E44" stroke-width="3"/>
<line x1="102" y1="28.5" x2="112" y2="28.5" stroke="#971E44" stroke-width="3"/>
<line x1="119" y1="28.5" x2="129" y2="28.5" stroke="#971E44" stroke-width="3"/>
<line x1="87" y1="28.5" x2="97" y2="28.5" stroke="#971E44" stroke-width="3"/>
<line x1="72" y1="28.5" x2="82" y2="28.5" stroke="#971E44" stroke-width="3"/>
<path d="M250.68 38.1799L257.835 20.4514L265.144 38.1799L257.835 49.8435L250.68 38.1799Z" fill="url(#paint0_linear)"/>
<path d="M254.472 16.0478L257.677 1L260.951 16.0478L257.677 25.9478L254.472 16.0478Z" fill="url(#paint1_linear)"/>
<path opacity="0.61" d="M257.676 51L264.808 26.1152L265.531 21.981L264.808 18.1569L259.663 14.6428L257.521 20.6891L256.746 33.2984L257.676 51Z" fill="url(#paint2_linear)"/>
<path opacity="0.61" d="M258.304 23.1025L260.802 21.2591L262.844 20.5858L257.503 30.5533L258.304 23.1025Z" fill="url(#paint3_linear)"/>
<path opacity="0.61" d="M263.361 19.4488L262.844 20.4307L260.829 21.1025L263.361 19.4488Z" fill="#FFA6C2"/>
<path opacity="0.61" d="M263.774 13.816L264.498 16.1415L262.896 13.1959L263.774 13.816Z" fill="#F4719B"/>
<path opacity="0.61" d="M261.449 10.457L263.482 13.6093L261.002 11.8006L261.449 10.457Z" fill="#FFC0D4"/>
<path opacity="0.61" d="M257.452 19.8417L256.41 25.9636L252.861 13.9194L257.452 19.8417Z" fill="#E195AD"/>
<path opacity="0.61" d="M256.851 35.8967L268.529 31.2313L269.355 29.6293L268.942 22.4978L266.255 20.7924L263.737 19.2349L257.377 31.1951L256.851 35.8967Z" fill="url(#paint4_linear)"/>
<path opacity="0.61" d="M256.794 35.9577L256.093 42.2262L258.075 49.4311L265.052 38.2687L268.517 31.2427L256.794 35.9577Z" fill="#A72850"/>
<path opacity="0.61" d="M256.372 46.7635L261.199 41.2908L259.936 33.7697L258.447 24.5639L255.572 18.9486L250.986 32.1667L254.049 44.2292L256.372 46.7635Z" fill="url(#paint5_linear)"/>
<path opacity="0.61" d="M246.872 20.0897L246.564 20.348L245.754 22.3314L247.186 20.623L246.872 20.0897Z" fill="#F580A6"/>
<path opacity="0.61" d="M247.273 38.1809L243 28.8396L245.782 22.2807L247.273 20.4917L253.335 30.3176L254.727 45.3361L247.273 38.1809Z" fill="url(#paint6_linear)"/>
<path opacity="0.61" d="M246.443 20.2964L246.574 19.4809L246.802 19.9294L246.443 20.2964Z" fill="#F580A6"/>
<g opacity="0.61">
<path d="M254.537 15.333L253.91 15.6624L253.91 14.8172L254.111 14.0744L254.537 15.333Z" fill="url(#paint7_linear)"/>
<path d="M254.611 13.1442L254.443 14.0744L254.249 13.5059L254.611 13.1442Z" fill="url(#paint8_linear)"/>
</g>
<g opacity="0.61">
<path d="M263.878 18.6886L265.133 19.5017L265.69 16.9806L265.468 14.7553L264.299 16.6222L263.878 18.6886Z" fill="url(#paint9_linear)"/>
<path d="M264.309 11.9567L264.289 14.7393L265.352 13.053L264.309 11.9567Z" fill="url(#paint10_linear)"/>
</g>
<g opacity="0.61">
<path d="M258.777 18.7084L258.442 19.9032L257.759 17.425L257.861 15.1931L259.111 16.9813L258.777 18.7084Z" fill="url(#paint11_linear)"/>
<path d="M258.573 12.6409L259.084 13.633L258.74 15.4132L257.604 13.7984L258.573 12.6409Z" fill="url(#paint12_linear)"/>
</g>
<path opacity="0.61" d="M249.098 27.8205L248.026 19.0353L249.098 8.0797L253.284 15.8314L256.591 30.3528L256.591 35.8306L252.482 38.5526L249.098 27.8205Z" fill="url(#paint13_linear)"/>
<path opacity="0.61" d="M255.058 22.2715L253.749 29.526L249.563 25.7535L253.034 15.0563L255.058 22.2715Z" fill="url(#paint14_linear)"/>
<path opacity="0.61" d="M267.909 18.4153L269.503 22.1152L263.878 19.5005L264.808 18.0019L267.909 18.4153Z" fill="url(#paint15_linear)"/>
<path opacity="0.61" d="M263.619 14.623L264.526 16.0829L264.756 18.0019L259.824 14.623L260.964 12.0644L262.63 13.1142L263.619 14.623Z" fill="url(#paint16_linear)"/>
<path opacity="0.61" d="M267.252 16.5263L267.857 17.9502L265.118 17.6918L266.084 14.5399L267.252 16.5263Z" fill="#FFC2D6"/>
<defs>
<filter id="filter0_dd" x="0" y="0" width="58" height="59" filterUnits="userSpaceOnUse" color-interpolation-filters="sRGB">
<feFlood flood-opacity="0" result="BackgroundImageFix"/>
<feColorMatrix in="SourceAlpha" type="matrix" values="0 0 0 0 0 0 0 0 0 0 0 0 0 0 0 0 0 0 127 0"/>
<feOffset dy="1"/>
<feGaussianBlur stdDeviation="1"/>
<feColorMatrix type="matrix" values="0 0 0 0 0.592157 0 0 0 0 0.117647 0 0 0 0 0.266667 0 0 0 0.16 0"/>
<feBlend mode="normal" in2="BackgroundImageFix" result="effect1_dropShadow"/>
<feColorMatrix in="SourceAlpha" type="matrix" values="0 0 0 0 0 0 0 0 0 0 0 0 0 0 0 0 0 0 127 0"/>
<feOffset dy="4"/>
<feGaussianBlur stdDeviation="2"/>
<feColorMatrix type="matrix" values="0 0 0 0 0.592157 0 0 0 0 0.117647 0 0 0 0 0.266667 0 0 0 0.08 0"/>
<feBlend mode="normal" in2="effect1_dropShadow" result="effect2_dropShadow"/>
<feBlend mode="normal" in="SourceGraphic" in2="effect2_dropShadow" result="shape"/>
</filter>
<linearGradient id="paint0_linear" x1="257.912" y1="20.4514" x2="257.912" y2="49.8435" gradientUnits="userSpaceOnUse">
<stop stop-color="#B13159"/>
<stop offset="1" stop-color="#68142E"/>
</linearGradient>
<linearGradient id="paint1_linear" x1="257.712" y1="1" x2="257.712" y2="25.9478" gradientUnits="userSpaceOnUse">
<stop stop-color="#FFAEC7"/>
<stop offset="1" stop-color="#C12153"/>
</linearGradient>
<linearGradient id="paint2_linear" x1="264.444" y1="23.9623" x2="260.216" y2="45.4188" gradientUnits="userSpaceOnUse">
<stop stop-color="#F05987"/>
<stop offset="1" stop-color="#6F0023"/>
</linearGradient>
<linearGradient id="paint3_linear" x1="260.174" y1="20.5858" x2="260.174" y2="30.5533" gradientUnits="userSpaceOnUse">
<stop stop-color="#FF83B4"/>
<stop offset="1" stop-color="#B70049"/>
</linearGradient>
<linearGradient id="paint4_linear" x1="266.512" y1="15.511" x2="262.284" y2="36.9675" gradientUnits="userSpaceOnUse">
<stop stop-color="#FF86AB"/>
<stop offset="1" stop-color="#B13159"/>
</linearGradient>
<linearGradient id="paint5_linear" x1="255.481" y1="18.5652" x2="256.141" y2="46.7676" gradientUnits="userSpaceOnUse">
<stop stop-color="#FF86AB"/>
<stop offset="1" stop-color="#8F2647"/>
</linearGradient>
<linearGradient id="paint6_linear" x1="245.186" y1="18.007" x2="254.727" y2="45.0385" gradientUnits="userSpaceOnUse">
<stop stop-color="#E7658E"/>
<stop offset="1" stop-color="#81072D"/>
</linearGradient>
<linearGradient id="paint7_linear" x1="253.89" y1="14.2156" x2="254.855" y2="14.7046" gradientUnits="userSpaceOnUse">
<stop stop-color="#FFC0D5"/>
<stop offset="1" stop-color="#F53E7A"/>
</linearGradient>
<linearGradient id="paint8_linear" x1="253.89" y1="14.2156" x2="254.855" y2="14.7046" gradientUnits="userSpaceOnUse">
<stop stop-color="#FFC0D5"/>
<stop offset="1" stop-color="#F53E7A"/>
</linearGradient>
<linearGradient id="paint9_linear" x1="266.157" y1="15.1869" x2="262.416" y2="16.5996" gradientUnits="userSpaceOnUse">
<stop stop-color="#FFC0D5"/>
<stop offset="1" stop-color="#F53E7A"/>
</linearGradient>
<linearGradient id="paint10_linear" x1="266.157" y1="15.1869" x2="262.416" y2="16.5996" gradientUnits="userSpaceOnUse">
<stop stop-color="#FFC0D5"/>
<stop offset="1" stop-color="#F53E7A"/>
</linearGradient>
<linearGradient id="paint11_linear" x1="255.506" y1="14.4878" x2="258.813" y2="19.9139" gradientUnits="userSpaceOnUse">
<stop stop-color="#FFC0D5"/>
<stop offset="1" stop-color="#F53E7A"/>
</linearGradient>
<linearGradient id="paint12_linear" x1="255.506" y1="14.4878" x2="258.813" y2="19.9139" gradientUnits="userSpaceOnUse">
<stop stop-color="#FFC0D5"/>
<stop offset="1" stop-color="#F53E7A"/>
</linearGradient>
<linearGradient id="paint13_linear" x1="251.856" y1="9.72838" x2="251.65" y2="38.2666" gradientUnits="userSpaceOnUse">
<stop stop-color="#E7658E"/>
<stop offset="1" stop-color="#81072D"/>
</linearGradient>
<linearGradient id="paint14_linear" x1="254.48" y1="26.4737" x2="250.343" y2="16.1333" gradientUnits="userSpaceOnUse">
<stop stop-color="#B73C63"/>
<stop offset="1" stop-color="#FFA5C1"/>
</linearGradient>
<linearGradient id="paint15_linear" x1="269.675" y1="21.9113" x2="264.633" y2="17.6473" gradientUnits="userSpaceOnUse">
<stop stop-color="#E84E7F"/>
<stop offset="1" stop-color="#FFBFD3"/>
</linearGradient>
<linearGradient id="paint16_linear" x1="261.914" y1="16.5549" x2="263.878" y2="12.8858" gradientUnits="userSpaceOnUse">
<stop stop-color="#E84E7F"/>
<stop offset="1" stop-color="#FFBFD3"/>
</linearGradient>
<clipPath id="clip0">
<rect x="9" y="6" width="40" height="40" rx="15" fill="white"/>
</clipPath>
</defs>
</svg>
