<svg width="300" height="59" viewBox="0 0 300 59" fill="none" xmlns="http://www.w3.org/2000/svg">
<g filter="url(#filter0_dd)">
<circle cx="29" cy="26" r="25" fill="#E0C9F5"/>
</g>
<g clip-path="url(#clip0)">
<path d="M29 30C31.198 30 33.1014 29.2116 34.6565 27.6562C36.2117 26.101 37 24.1981 37 21.9997C37 19.8021 36.2117 17.899 34.6563 16.3433C33.1009 14.7884 31.1978 14 29 14C26.8017 14 24.8989 14.7884 23.3437 16.3436C21.7886 17.8988 21 19.8019 21 21.9997C21 24.1981 21.7886 26.1012 23.344 27.6564C24.8994 29.2114 26.8025 30 29 30Z" fill="#56459E"/>
<path d="M43.5955 39.5863C43.548 38.933 43.452 38.2203 43.3106 37.4677C43.1679 36.7095 42.9842 35.9927 42.7642 35.3376C42.537 34.6605 42.228 33.9918 41.846 33.351C41.4496 32.686 40.9839 32.1068 40.4614 31.6302C39.915 31.1317 39.246 30.7308 38.4723 30.4384C37.7014 30.1476 36.8471 30.0003 35.9332 30.0003C35.5743 30.0003 35.2272 30.1407 34.5568 30.5569C34.1443 30.8135 33.6617 31.1102 33.1231 31.4384C32.6625 31.7182 32.0386 31.9804 31.2679 32.2178C30.516 32.4498 29.7526 32.5675 28.9991 32.5675C28.2456 32.5675 27.4825 32.4498 26.7298 32.2178C25.9599 31.9807 25.336 31.7185 24.876 31.4386C24.3424 31.1135 23.8596 30.8168 23.4409 30.5566C22.7713 30.1404 22.424 30 22.0651 30C21.1509 30 20.2968 30.1476 19.5261 30.4387C18.7531 30.7306 18.0838 31.1314 17.5369 31.6305C17.0146 32.1073 16.5487 32.6862 16.1527 33.351C15.771 33.9918 15.462 34.6603 15.2345 35.3379C15.0149 35.993 14.8311 36.7095 14.6884 37.4677C14.547 38.2193 14.451 38.9322 14.4035 39.5871C14.3569 40.2286 14.3333 40.8945 14.3333 41.567C14.3333 43.3172 14.9167 44.7341 16.0672 45.7791C17.2034 46.8102 18.7069 47.3333 20.5353 47.3333H37.4646C39.2929 47.3333 40.7959 46.8105 41.9324 45.7791C43.0832 44.7349 43.6666 43.3177 43.6666 41.5667C43.6663 40.8911 43.6424 40.2248 43.5955 39.5863Z" fill="#56459E"/>
</g>
<g clip-path="url(#clip1)">
<path d="M260.686 50.936C259.739 50.8619 258.436 50.6769 257.799 50.5288C257.555 50.477 257.252 50.4252 257.118 50.4252C256.844 50.4252 255.379 50.0107 254.283 49.6184C253.854 49.4629 253.373 49.2927 253.21 49.2409C253.047 49.1891 252.403 48.893 251.767 48.5895C250.79 48.1158 250.353 47.8715 249.139 47.1461C248.754 46.9166 248.088 46.4651 247.992 46.3615C247.932 46.3023 247.703 46.1394 247.473 45.9988C247.251 45.8507 247.014 45.6805 246.955 45.6065C246.896 45.5399 246.644 45.3252 246.4 45.1327C245.778 44.6516 243.994 42.8751 243.454 42.2089C243.21 41.9054 242.943 41.5945 242.869 41.5205C242.795 41.4465 242.625 41.217 242.484 41.0024C242.351 40.7951 242.151 40.5212 242.04 40.3954C241.87 40.203 241.641 39.8625 241.352 39.3591C241.307 39.2777 241.063 38.8854 240.819 38.4857C240.567 38.086 240.367 37.7381 240.367 37.7159C240.367 37.6863 240.145 37.2125 239.879 36.6648C239.605 36.1096 239.287 35.3768 239.168 35.0289C238.606 33.4301 238.213 32.1347 238.139 31.698C238.095 31.4315 238.014 30.9874 237.954 30.6987C237.569 28.7668 237.421 26.5461 237.54 24.6438C237.621 23.4595 237.866 21.4905 237.954 21.3425C237.977 21.3203 238.028 21.0168 238.073 20.6837C238.154 20.0471 238.495 18.848 238.917 17.671C239.05 17.3083 239.205 16.8716 239.257 16.7088C239.309 16.5459 239.605 15.902 239.908 15.2654C240.382 14.2883 240.626 13.8516 241.352 12.6376C241.581 12.2527 242.033 11.5865 242.136 11.4903C242.196 11.4311 242.351 11.209 242.492 10.9944C242.625 10.7797 242.81 10.5354 242.906 10.4392C242.995 10.343 243.262 10.0395 243.491 9.75083C244.305 8.72934 246.667 6.53093 247.584 5.93136C247.747 5.82033 247.984 5.65008 248.103 5.53905C248.295 5.3688 248.591 5.16894 249.139 4.85066C249.22 4.79884 249.605 4.56938 249.99 4.33251C250.375 4.09564 250.723 3.88839 250.767 3.87358C250.804 3.86618 251.293 3.63672 251.841 3.37024C252.388 3.10377 253.121 2.78548 253.469 2.66704C255.068 2.10449 256.363 1.71218 256.8 1.63816C257.066 1.59374 257.518 1.51232 257.799 1.4531C259.731 1.0682 261.952 0.920155 263.854 1.03859C265.039 1.12001 267.007 1.36428 267.156 1.4531C267.178 1.47531 267.481 1.52712 267.814 1.57154C268.451 1.65296 269.65 1.99346 270.827 2.41537C271.19 2.54861 271.626 2.70405 271.789 2.75587C271.952 2.80768 272.596 3.10377 273.233 3.40725C274.21 3.88098 274.646 4.12525 275.86 4.85066C276.245 5.08012 276.911 5.53165 277.008 5.63528C277.067 5.69449 277.296 5.85734 277.526 5.99798C277.748 6.14602 277.985 6.31627 278.044 6.39029C278.103 6.45691 278.355 6.67157 278.599 6.86402C279.68 7.71526 281.782 9.94328 282.567 11.0832C282.715 11.2979 282.907 11.5495 282.996 11.6458C283.137 11.8012 283.307 12.0603 283.647 12.6376C283.699 12.7191 283.929 13.104 284.165 13.4889C284.402 13.8738 284.61 14.2217 284.624 14.2661C284.632 14.3031 284.861 14.7916 285.128 15.3394C285.394 15.8871 285.713 16.62 285.831 16.9679C286.364 18.5001 286.786 19.8399 286.86 20.2544C286.904 20.506 286.986 20.9576 287.037 21.2611C287.437 23.3854 287.578 25.4506 287.459 27.3456C287.378 28.6039 287.178 30.1435 287 30.8467C286.963 31.0096 286.926 31.2464 286.926 31.3797C286.926 31.6536 286.505 33.1192 286.12 34.2147C285.964 34.644 285.794 35.1251 285.742 35.288C285.69 35.4508 285.394 36.0948 285.091 36.7314C284.617 37.7085 284.373 38.1452 283.647 39.3591C283.418 39.744 282.966 40.4102 282.863 40.5064C282.803 40.5657 282.641 40.7951 282.5 41.0246C282.352 41.2466 282.182 41.4835 282.108 41.5427C282.041 41.6019 281.826 41.8536 281.634 42.0979C281.153 42.7197 279.376 44.5036 278.71 45.0439C278.407 45.2882 278.096 45.5547 278.022 45.6287C277.948 45.7027 277.718 45.8729 277.504 46.0136C277.296 46.1468 277.022 46.3467 276.897 46.4577C276.704 46.628 276.364 46.8574 275.86 47.1461C275.779 47.1905 275.387 47.4348 274.987 47.6791C274.587 47.9307 274.239 48.1306 274.217 48.1306C274.187 48.1306 273.714 48.3526 273.166 48.6191C272.611 48.893 271.878 49.2113 271.53 49.3297C270.042 49.8479 268.666 50.2846 268.281 50.3512C268.051 50.3882 267.503 50.4918 267.052 50.5659C264.757 50.9804 262.796 51.0988 260.686 50.936Z" fill="#1B1E36"/>
<path d="M260.759 50.9362C258.909 50.8104 256.644 50.3885 255.171 49.9073C252.454 49.0117 251.018 48.3455 248.797 46.9243C246.947 45.7326 244.489 43.5193 243.083 41.765C242.424 40.9286 241.647 39.8627 241.469 39.5444C241.388 39.4038 241.159 39.0189 240.951 38.6932C240.463 37.916 239.523 35.9914 239.204 35.1032C238.383 32.8752 238.094 31.75 237.731 29.3666C237.198 25.8802 237.628 21.3353 238.79 18.0784C238.975 17.5677 239.182 16.9681 239.256 16.746C239.537 15.8652 240.618 13.7926 241.573 12.2974C242.765 10.4469 244.978 7.98938 246.732 6.58299C247.569 5.92421 248.635 5.14699 248.953 4.96934C249.094 4.88791 249.478 4.65845 249.804 4.45119C250.581 3.96266 252.506 3.02259 253.394 2.7043C255.622 1.88267 256.777 1.58659 259.131 1.23129C262.654 0.705742 267.155 1.12026 270.419 2.28979C270.93 2.47484 271.529 2.6821 271.751 2.75612C272.632 3.0374 274.705 4.1181 276.2 5.07297C278.05 6.2647 280.508 8.47792 281.914 10.2322C282.573 11.0686 283.35 12.1345 283.528 12.4528C283.609 12.5935 283.839 12.9784 284.046 13.3041C284.875 14.629 285.675 16.4426 286.37 18.5595C286.94 20.299 287.303 22.3642 287.451 24.6515C287.599 26.8943 287.399 29.1297 286.8 31.9203C286.689 32.468 286.37 33.4673 285.867 34.9181C285.564 35.7842 284.572 37.8419 284.039 38.6932C283.839 39.0189 283.609 39.4038 283.528 39.5444C283.002 40.4919 281.293 42.5645 279.968 43.8598C277.865 45.9102 275.926 47.2796 273.269 48.575C271.936 49.2189 269.62 50.048 268.42 50.2996C265.467 50.9288 263.239 51.1139 260.759 50.9362ZM264.475 40.2032C264.919 40.1366 265.097 40.0848 265.119 39.996C265.423 38.9523 266.081 33.5413 265.918 33.3933C265.889 33.3637 265.2 33.001 264.394 32.5865C263.579 32.172 262.839 31.7797 262.743 31.7204C262.588 31.6168 262.551 31.6242 262.254 31.7945C262.084 31.8981 261.307 32.3052 260.537 32.6975C259.76 33.0898 259.109 33.4377 259.086 33.4599C259.012 33.5339 259.205 35.8582 259.39 37.1017C259.627 38.7524 259.582 38.6266 259.915 38.7228C260.078 38.7746 260.367 38.9671 260.574 39.1595C260.87 39.4408 260.966 39.5962 261.033 39.8923C261.122 40.255 261.144 40.2772 261.388 40.3142C261.825 40.3661 263.831 40.2994 264.475 40.2032ZM267.206 39.5148C267.924 39.278 269.153 38.7006 269.945 38.2343C270.441 37.9382 271.611 37.0573 272.158 36.554L272.595 36.1543L272.047 35.9914C271.751 35.9026 271.152 35.6805 270.722 35.4955C270.293 35.3104 269.59 35.0218 269.161 34.8441C268.731 34.6665 268.08 34.3778 267.702 34.1927L267.029 33.8596L266.977 34.5406C266.859 36.2135 266.57 38.5007 266.348 39.4926C266.303 39.6925 266.311 39.7665 266.377 39.7665C266.429 39.7665 266.799 39.6555 267.206 39.5148ZM258.057 39.5444C258.057 39.5074 258.169 39.3446 258.309 39.1965C258.442 39.0411 258.546 38.8856 258.531 38.8412C258.45 38.5896 258.183 36.443 258.087 35.3104C258.028 34.5628 257.969 33.9559 257.961 33.9485C257.954 33.9411 257.628 34.0891 257.243 34.2816C256.858 34.474 256.422 34.6739 256.281 34.7331C256.14 34.7849 255.489 35.0514 254.838 35.3252C254.186 35.5991 253.424 35.8952 253.135 35.984C252.343 36.2431 252.35 36.2061 252.972 36.7464C254.245 37.8568 256.296 39.0929 257.488 39.463C258.043 39.6333 258.057 39.6407 258.057 39.5444ZM252.698 34.9625C253.268 34.7701 253.912 34.5184 254.134 34.4148C254.712 34.1483 255.082 34.0003 255.504 33.8448C255.8 33.7412 257.732 32.8381 257.821 32.7641C257.835 32.7567 257.806 31.8611 257.754 30.7804L257.658 28.8188L257.169 28.4783C256.895 28.2933 256.651 28.1452 256.629 28.1452C256.599 28.1452 256.185 27.8862 255.711 27.5679C254.305 26.6352 254.438 26.687 254.016 26.9239C253.816 27.0423 253.572 27.2052 253.468 27.294C253.365 27.3828 252.869 27.7603 252.358 28.1378C251.018 29.1223 250.596 29.448 250.152 29.8255C249.937 30.0106 249.634 30.2548 249.486 30.3659C248.975 30.736 248.938 30.8174 249.064 31.1727C249.175 31.491 249.782 32.7345 250.122 33.3267C250.478 33.9559 251.507 35.3252 251.625 35.3252C251.647 35.3252 252.136 35.1624 252.698 34.9625ZM274.061 34.4C274.882 33.2527 275.97 31.1505 275.97 30.7138C275.97 30.5509 275.001 29.7811 271.64 27.2718C271.396 27.0941 271.093 26.8943 270.959 26.8277L270.73 26.7166L269.642 27.4346C269.05 27.8269 268.546 28.1452 268.524 28.1452C268.509 28.1452 268.228 28.3155 267.91 28.5227L267.332 28.9002L267.28 30.0994C267.258 30.7508 267.214 31.6094 267.192 31.9943L267.14 32.6975L268.361 33.2749C269.027 33.5858 269.597 33.8448 269.634 33.8448C269.664 33.8448 270.13 34.0299 270.663 34.2668C271.914 34.7997 273.158 35.2512 273.335 35.229C273.424 35.2216 273.705 34.9033 274.061 34.4ZM259.975 31.7352C260.5 31.4762 261.041 31.1949 261.166 31.1209L261.396 30.9728L260.929 30.7212C260.67 30.5731 260.263 30.3511 260.019 30.2178C259.775 30.0846 259.442 29.8847 259.279 29.7737C259.116 29.6627 258.938 29.5516 258.879 29.5146C258.798 29.4702 258.783 29.6034 258.827 30.3362C258.887 31.4836 258.953 32.2164 258.99 32.2164C259.005 32.2164 259.449 32.0017 259.975 31.7352ZM266.081 31.7574C266.178 30.847 266.215 29.6257 266.141 29.6257C266.104 29.6257 265.955 29.7071 265.807 29.8033C265.667 29.8995 265.208 30.166 264.801 30.3955C263.653 31.032 263.727 30.9654 264.001 31.1357C264.29 31.3059 265.918 32.135 265.992 32.135C266.022 32.1424 266.059 31.9647 266.081 31.7574ZM263.528 29.8329C264.038 29.5442 264.867 29.0705 265.363 28.7818L266.266 28.2563V25.9986L266.274 23.741L265.741 23.4449C265.445 23.2821 265.089 23.0674 264.949 22.9712C264.801 22.875 264.482 22.6899 264.238 22.5567C263.994 22.4308 263.513 22.1644 263.172 21.9645C262.565 21.6166 262.543 21.6166 262.358 21.735C262.254 21.8017 261.833 22.0459 261.425 22.268C261.018 22.4975 260.256 22.9416 259.723 23.2599L258.761 23.8298V26.006V28.1822L259.094 28.3599C259.279 28.4561 259.642 28.6782 259.908 28.8484C260.174 29.0187 260.833 29.3962 261.374 29.6923C261.907 29.9884 262.373 30.2622 262.395 30.2992C262.469 30.4177 262.588 30.3733 263.528 29.8329ZM249.323 29.0705C249.856 28.5746 253.024 26.1985 253.268 26.1023C253.446 26.0356 253.424 25.9764 253.187 25.8432C252.913 25.6877 250.13 23.6226 249.641 23.208L249.264 22.8898L248.827 22.986L248.398 23.0896L248.309 23.5634C247.991 25.3028 248.072 27.7011 248.509 29.3222L248.59 29.6331L248.827 29.4702C248.96 29.3814 249.182 29.1963 249.323 29.0705ZM276.518 28.7744C276.881 26.9313 276.881 25.066 276.518 23.2229C276.452 22.8972 276.378 22.6011 276.341 22.5715C276.311 22.5345 276.111 22.6751 275.889 22.875C275.482 23.2377 273.58 24.7033 272.388 25.5545C272.003 25.8358 271.774 26.043 271.833 26.0653C271.966 26.1097 274.261 27.7899 274.527 28.0416C274.609 28.123 274.808 28.2711 274.971 28.3821C275.134 28.4931 275.497 28.7892 275.778 29.0335C276.067 29.2778 276.318 29.4554 276.348 29.4258C276.378 29.3888 276.452 29.1001 276.518 28.7744ZM267.88 27.2348C268.687 26.7314 269.745 26.0356 269.745 25.9986C269.753 25.932 267.547 24.5256 267.443 24.5182C267.406 24.5182 267.384 25.1844 267.384 25.9986C267.384 26.8129 267.406 27.479 267.443 27.479C267.473 27.4716 267.665 27.368 267.88 27.2348ZM257.613 25.9986C257.613 25.2288 257.591 24.5922 257.562 24.5996C257.525 24.5996 257.31 24.7255 257.08 24.8735C255.755 25.7248 255.4 25.969 255.4 25.9986C255.4 26.0282 255.755 26.2725 257.08 27.1237C257.31 27.2718 257.525 27.3976 257.562 27.3976C257.591 27.405 257.613 26.7759 257.613 25.9986ZM257.14 23.5189L257.658 23.1858L257.754 21.2169C257.806 20.1362 257.843 19.2405 257.828 19.2257C257.813 19.2109 257.465 19.0481 257.058 18.8556C256.651 18.6632 256.148 18.4263 255.94 18.3301C255.733 18.2339 255.541 18.1524 255.504 18.1524C255.474 18.1524 254.993 17.9526 254.438 17.7157C253.017 17.1013 251.632 16.6424 251.507 16.746C251.255 16.9533 250.241 18.4485 249.856 19.1887L249.412 20.0178L249.738 20.3138C250.145 20.6913 250.241 20.9874 250.189 21.6684L250.145 22.2014L250.818 22.7121C251.188 22.9934 251.862 23.4967 252.313 23.8298C252.765 24.1703 253.268 24.5478 253.431 24.6663C253.594 24.7921 253.875 24.992 254.053 25.103L254.379 25.3176L255.496 24.5848C256.111 24.1851 256.851 23.704 257.14 23.5189ZM271.078 25.0956C271.352 24.9327 271.492 24.8291 272.965 23.7336C275.045 22.1792 275.97 21.4242 275.97 21.2835C275.97 20.9208 274.882 18.7372 274.312 17.9526L273.979 17.5011L273.602 17.6417C273.402 17.7157 273.121 17.7823 272.987 17.7823C272.728 17.7823 272.166 17.5529 271.959 17.3604C271.833 17.2494 271.744 17.2716 270.752 17.6935C270.167 17.9452 269.664 18.1524 269.634 18.1524C269.597 18.1524 269.027 18.4115 268.361 18.7224L267.14 19.2998L267.192 20.003C267.214 20.3879 267.258 21.2391 267.28 21.8905L267.332 23.0822L267.91 23.4671C268.221 23.6818 268.502 23.852 268.524 23.852C268.546 23.852 269.042 24.1703 269.62 24.5552C270.204 24.9401 270.708 25.2584 270.745 25.2584C270.782 25.2584 270.93 25.1844 271.078 25.0956ZM259.279 22.2236C259.442 22.1125 259.982 21.7943 260.485 21.5204C261.137 21.1651 261.374 20.9948 261.3 20.9504C261.078 20.8024 259.005 19.7735 258.975 19.8031C258.946 19.8327 258.805 21.8387 258.798 22.2828C258.798 22.5493 258.783 22.5493 259.279 22.2236ZM266.141 21.0763C266.096 20.4397 266.052 19.8993 266.03 19.8771C266.007 19.8549 265.807 19.9363 265.593 20.0548C265.378 20.1806 265.082 20.3212 264.941 20.3805C264.801 20.4323 264.475 20.6025 264.216 20.7506L263.75 21.0244L264.438 21.4019C264.816 21.6018 265.363 21.9201 265.645 22.0977C265.985 22.3124 266.17 22.3938 266.185 22.3272C266.2 22.2754 266.178 21.7128 266.141 21.0763ZM262.869 20.2176C263.009 20.1288 263.742 19.7439 264.497 19.359C265.252 18.9741 265.889 18.6336 265.918 18.6114C266.081 18.4559 265.423 13.045 265.119 12.0013C265.038 11.7126 261.87 11.5572 260.515 11.7792C259.997 11.8681 259.901 11.9051 259.871 12.0383C259.486 13.7852 258.924 18.3745 259.086 18.5373C259.109 18.5595 259.834 18.9371 260.685 19.3738C261.544 19.8105 262.291 20.2102 262.351 20.2694C262.491 20.4101 262.565 20.4027 262.869 20.2176ZM269.331 17.0791C269.864 16.8571 270.537 16.5832 270.819 16.4574L271.337 16.2427L271.455 15.7912C271.529 15.5469 271.625 15.2952 271.67 15.236C271.722 15.1768 271.744 15.088 271.722 15.051C271.588 14.8437 269.768 13.652 268.916 13.2227C268.087 12.8007 266.636 12.2308 266.385 12.2308C266.333 12.2308 266.377 12.6453 266.511 13.4373C266.71 14.629 266.888 16.1613 266.984 17.464L267.029 18.145L267.688 17.8119C268.05 17.6343 268.79 17.3012 269.331 17.0791ZM258.087 16.6868C258.198 15.3767 258.405 13.8 258.613 12.7267C258.664 12.438 258.709 12.1864 258.701 12.179C258.687 12.1716 258.302 12.2826 257.835 12.4306C256.784 12.7637 255.222 13.5557 254.253 14.2441C253.476 14.7993 252.402 15.7023 252.454 15.7616C252.476 15.7764 252.898 15.9392 253.402 16.1169C254.549 16.5166 257.673 17.8489 257.865 18.0192C257.902 18.0488 257.946 18.0636 257.954 18.0562C257.969 18.0488 258.028 17.4344 258.087 16.6868Z" fill="#2D3047"/>
<path d="M261.885 28.5892C261.522 28.4929 260.952 28.2043 260.656 27.9526C260.523 27.8416 260.301 27.5159 260.145 27.2272C259.893 26.7313 259.879 26.6572 259.879 25.9985C259.879 25.4877 259.908 25.236 259.997 25.0732C260.064 24.9548 260.175 24.7327 260.241 24.5921C260.404 24.2368 260.7 23.9333 261.056 23.763C261.218 23.6816 261.455 23.5632 261.574 23.4966C261.737 23.4077 261.988 23.3781 262.499 23.3781C263.143 23.3781 263.239 23.4003 263.654 23.6076C264.305 23.9481 264.535 24.1627 264.823 24.7401C265.29 25.6802 265.253 26.5092 264.705 27.4271C264.409 27.9156 264.35 27.9748 263.78 28.2709C263.291 28.53 263.084 28.5966 262.669 28.6188C262.395 28.641 262.04 28.6262 261.885 28.5892Z" fill="#2D3047"/>
<path d="M261.908 47.598C261.323 47.2797 260.642 46.2509 260.079 44.8371C259.924 44.4522 259.487 42.9939 259.25 42.0909C259.184 41.854 259.124 41.7726 258.976 41.7356C258.873 41.706 258.643 41.5505 258.466 41.3877C257.777 40.7511 257.762 39.8555 258.429 39.1375L258.636 38.9154L258.532 38.2122C258.369 37.1389 258.058 34.5112 258.058 34.2003C258.058 34.0152 258.021 33.919 257.962 33.919C257.903 33.919 257.452 34.1041 256.941 34.3335C253.551 35.8731 250.22 37.0205 247.844 37.4794C246.807 37.6867 245.134 37.7163 244.557 37.5534C244.024 37.398 243.58 36.9464 243.513 36.4875C243.343 35.3402 244.772 33.2454 247.362 30.8619C248.525 29.7886 250.901 27.8715 252.381 26.813C252.981 26.3837 253.469 26.021 253.469 25.9988C253.469 25.9766 253.062 25.6657 252.566 25.3178C252.063 24.9625 251.293 24.3851 250.841 24.0298C249.228 22.7715 249.272 22.8011 249.109 22.8825C248.747 23.0824 247.947 22.9047 247.518 22.5272C247.259 22.2977 247.103 21.8832 247.103 21.3947V20.921L246.689 20.5212C245.001 18.878 243.78 17.1607 243.543 16.1096C243.38 15.3694 243.735 14.7254 244.461 14.4738C244.935 14.3109 246.607 14.2887 247.474 14.4441C249.931 14.8661 253.758 16.191 257.333 17.8417C257.688 18.0045 257.992 18.1156 258.014 18.0934C258.036 18.0712 258.058 17.9305 258.058 17.7899C258.058 17.3828 258.406 14.5848 258.651 13.0081C259.428 8.00434 260.856 4.52537 262.241 4.26629C263.077 4.11085 263.743 4.68081 264.491 6.19823C265.49 8.2338 266.223 11.4241 266.793 16.191C266.874 16.8868 266.941 17.5678 266.941 17.7085C266.948 18.2266 266.963 18.2266 268.333 17.6048C269.028 17.2939 269.998 16.8794 270.501 16.6796L271.412 16.3169L271.515 15.8875C271.649 15.3546 271.826 15.0955 272.211 14.8513C272.803 14.4738 273.521 14.5404 274.054 15.0215L274.336 15.2806L275.246 15.0141C276.941 14.533 277.963 14.3553 279.154 14.3479C280.457 14.3405 280.827 14.4293 281.271 14.8513C281.523 15.0955 281.597 15.2214 281.634 15.5026C281.834 16.835 279.924 19.3665 276.601 22.1867C275.483 23.1342 273.595 24.5998 272.515 25.3696C272.056 25.6879 271.678 25.9766 271.678 26.0062C271.678 26.0284 272.056 26.3171 272.515 26.6354C273.484 27.3164 275.402 28.7968 276.453 29.685C279.31 32.0833 281.197 34.3261 281.56 35.7547C281.782 36.606 281.538 37.1315 280.768 37.4794C280.413 37.6422 280.28 37.657 279.265 37.6496C278.422 37.6496 277.948 37.6126 277.304 37.4868C274.913 37.0131 271.937 35.9916 268.355 34.4001C267.459 34.0078 267.052 33.8598 267.015 33.919C266.985 33.9634 266.941 34.2891 266.911 34.637C266.889 34.9775 266.778 35.9176 266.682 36.717C266.023 41.8244 265.083 45.2146 263.877 46.8504C263.255 47.6943 262.581 47.9533 261.908 47.598ZM262.907 46.4803C264.143 45.185 265.268 40.9362 265.905 35.1625C266.112 33.2084 266.134 33.3564 265.631 33.127C265.394 33.0159 264.617 32.6236 263.891 32.2461L262.589 31.5577L260.76 32.4904L258.932 33.4157L258.976 33.9486C259.117 35.4586 259.494 38.3973 259.569 38.6267C259.591 38.6711 259.746 38.7452 259.924 38.7896C260.309 38.8858 260.842 39.3965 260.945 39.7666C261.138 40.4402 260.975 41.0028 260.479 41.4321L260.183 41.6912L260.272 42.0909C260.494 43.0828 260.982 44.5336 261.36 45.296C261.752 46.1102 262.278 46.7986 262.5 46.7986C262.552 46.7986 262.737 46.658 262.907 46.4803ZM247.533 36.5393C249.672 36.1692 252.899 35.0737 256.312 33.5637L257.933 32.8457L257.881 32.1795C257.859 31.8168 257.814 30.9804 257.792 30.329C257.74 28.6709 257.762 28.745 257.259 28.4489C257.03 28.3082 256.282 27.8271 255.601 27.383L254.357 26.5761L253.602 27.1165C250.901 29.0336 249.065 30.5437 247.281 32.3276C245.993 33.6081 245.334 34.3853 244.912 35.1477C244.616 35.6807 244.424 36.2358 244.483 36.3987C244.528 36.5023 244.794 36.6134 245.179 36.6874C245.482 36.7466 246.844 36.6578 247.533 36.5393ZM280.391 36.5837C280.679 36.4801 280.724 36.3765 280.62 36.0138C280.109 34.1559 276.571 30.6843 271.545 27.1165L270.79 26.5761L269.435 27.457C268.695 27.9455 267.925 28.4341 267.733 28.5525C267.533 28.6635 267.348 28.8264 267.318 28.9152C267.281 29.004 267.237 29.685 267.207 30.44C267.185 31.195 267.141 32.0315 267.119 32.2979L267.067 32.7865L268.762 33.5341C270.908 34.4816 272.759 35.1922 274.454 35.7177C276.319 36.3025 276.971 36.4505 278.599 36.6874C278.969 36.7392 280.139 36.6726 280.391 36.5837ZM260.597 31.5133C261.071 31.2691 261.463 31.0396 261.463 30.9952C261.456 30.936 259.065 29.5222 258.776 29.4111C258.702 29.3815 258.754 31.3949 258.843 32.0389L258.888 32.3498L259.302 32.1499C259.539 32.0463 260.116 31.7576 260.597 31.5133ZM266.238 30.7953C266.267 30.0699 266.275 29.4778 266.26 29.4778C266.238 29.4778 265.675 29.796 265.009 30.181C264.343 30.5659 263.773 30.8841 263.743 30.8841C263.706 30.8841 263.684 30.9286 263.684 30.9804C263.684 31.121 266.068 32.3127 266.134 32.2017C266.164 32.1499 266.208 31.5133 266.238 30.7953ZM263.203 30.1069C263.543 29.9219 264.38 29.4407 265.061 29.041L266.312 28.3082V25.9988V23.6819L265.127 22.9935C264.476 22.6086 263.632 22.1275 263.255 21.9202L262.566 21.5501L261.996 21.861C261.389 22.1941 260.731 22.5716 259.45 23.334L258.651 23.8078V26.0062V28.2046L259.894 28.93C261.13 29.6554 262.515 30.44 262.559 30.44C262.574 30.44 262.862 30.292 263.203 30.1069ZM268.606 26.8648C269.258 26.4429 269.791 26.0506 269.791 25.9988C269.791 25.9026 267.511 24.3703 267.37 24.3703C267.333 24.3703 267.311 25.1031 267.311 25.9988C267.311 26.8944 267.333 27.6272 267.37 27.6272C267.4 27.6272 267.955 27.2867 268.606 26.8648ZM257.688 25.9988C257.688 25.1475 257.666 24.4443 257.637 24.4443C257.489 24.4592 255.357 25.91 255.357 25.9988C255.357 26.0876 257.489 27.5384 257.637 27.5532C257.666 27.5532 257.688 26.8574 257.688 25.9988ZM255.764 24.5036C256.474 24.0372 257.2 23.5709 257.378 23.4747C257.548 23.3784 257.703 23.2304 257.725 23.149C257.74 23.0676 257.77 22.4014 257.792 21.6686C257.814 20.9358 257.859 20.0697 257.881 19.744L257.933 19.1519L256.312 18.4339C252.751 16.8646 249.776 15.8579 247.474 15.4434C246.156 15.2066 244.609 15.288 244.483 15.5989C244.416 15.7765 244.639 16.3835 244.964 16.9312C245.394 17.6418 245.956 18.3376 246.904 19.3147C247.696 20.1215 247.71 20.1363 247.903 20.0327C248.206 19.8773 248.673 19.8329 249.021 19.9291C249.428 20.0401 249.961 20.5286 250.072 20.8913C250.153 21.1652 250.138 21.7944 250.035 22.0091C249.975 22.1423 250.671 22.7271 252.359 23.978C253.98 25.1772 254.313 25.4066 254.394 25.377C254.439 25.3622 255.053 24.9699 255.764 24.5036ZM271.56 24.8737C276.519 21.3503 280.043 17.9083 280.605 16.043C280.657 15.8579 280.687 15.6581 280.664 15.5989C280.583 15.399 280.102 15.3028 279.228 15.3102C278.089 15.325 276.823 15.5545 275.194 16.043L274.602 16.2206L274.499 16.5685C274.173 17.664 272.84 18.0638 271.997 17.3161C271.834 17.1755 271.834 17.1755 271.145 17.442C270.768 17.5974 269.695 18.0564 268.762 18.4709L267.067 19.2185L267.119 19.7736C267.141 20.0845 267.185 20.8691 267.207 21.5205C267.267 23.3118 267.119 23.0454 268.592 23.9928C269.287 24.4443 270.065 24.9477 270.309 25.1105C270.553 25.2734 270.768 25.4066 270.783 25.4066C270.797 25.4066 271.145 25.1697 271.56 24.8737ZM259.953 21.9276C260.583 21.5575 261.182 21.217 261.278 21.1726C261.382 21.1282 261.463 21.0542 261.463 21.0098C261.463 20.9654 260.886 20.6397 260.19 20.2844C258.939 19.6626 258.91 19.6478 258.865 19.818C258.791 20.0623 258.695 22.5938 258.754 22.5938C258.784 22.5938 259.317 22.2903 259.953 21.9276ZM266.245 21.2837C266.216 20.5953 266.171 19.9661 266.149 19.8773C266.112 19.7218 266.06 19.744 264.898 20.3214C264.232 20.6545 263.684 20.958 263.684 21.0024C263.684 21.0394 263.943 21.217 264.261 21.3873C264.572 21.5649 265.15 21.8906 265.535 22.1127C265.919 22.3348 266.245 22.5198 266.26 22.5198C266.282 22.5198 266.267 21.9647 266.245 21.2837ZM264.343 19.5294L266.068 18.6559L266.023 18.049C265.609 13.0155 264.528 8.12277 263.41 6.22044C263.092 5.68009 262.67 5.19895 262.515 5.19895C262.329 5.19895 261.819 5.79112 261.523 6.34628C260.797 7.73787 260.064 10.2842 259.613 13.0081C259.369 14.4886 258.947 17.9527 258.947 18.4561C258.947 18.5597 259.272 18.7596 260.338 19.2925C261.101 19.6774 261.908 20.0919 262.13 20.2178C262.352 20.3436 262.559 20.4398 262.581 20.425C262.603 20.4176 263.395 20.0179 264.343 19.5294Z" fill="#8188B7"/>
<path d="M261.693 28.471C261.019 28.2267 260.457 27.7382 260.116 27.0942C259.968 26.8203 259.946 26.6649 259.946 25.9987C259.946 25.1031 260.057 24.7996 260.597 24.2296C261.226 23.5782 261.745 23.371 262.67 23.4228C263.18 23.445 263.358 23.4894 263.654 23.6597C264.18 23.9631 264.55 24.3481 264.816 24.8514C265.031 25.2585 265.053 25.3547 265.053 25.9987C265.053 26.5687 265.024 26.7685 264.89 27.035C264.646 27.5457 264.187 28.0195 263.669 28.2934C263.269 28.508 263.114 28.545 262.611 28.5672C262.203 28.582 261.915 28.5524 261.693 28.471Z" fill="#8188B7"/>
<path d="M258.999 41.6978C258.555 41.5202 258.451 41.4387 258.192 41.0316C258.029 40.7725 257.985 40.6097 257.985 40.3136C257.985 39.8103 258.066 39.6178 258.436 39.2107C258.91 38.6925 259.421 38.6185 260.183 38.9516C260.99 39.3069 261.227 40.6023 260.605 41.2537C260.102 41.7792 259.576 41.9199 258.999 41.6978Z" fill="#C9CBDB"/>
<path d="M261.908 28.4854C261.375 28.367 261.116 28.2263 260.694 27.8118C260.176 27.3159 259.953 26.7755 259.946 26.0353C259.946 25.1989 260.116 24.7621 260.649 24.2144C261.234 23.6222 261.612 23.4594 262.463 23.452C263.04 23.4446 263.188 23.4742 263.551 23.6444C264.017 23.8591 264.58 24.3846 264.794 24.814C265.127 25.4653 265.127 26.4572 264.794 27.153C264.572 27.6045 263.847 28.2485 263.41 28.3892C262.885 28.5594 262.367 28.589 261.908 28.4854Z" fill="#C9CBDB"/>
<path d="M248.221 22.8893C247.459 22.7043 246.955 21.7864 247.17 20.9796C247.429 20.0395 248.643 19.6176 249.465 20.1875C249.902 20.4836 250.175 21.0684 250.116 21.5643C249.998 22.5192 249.146 23.1188 248.221 22.8893Z" fill="#C9CBDB"/>
<path d="M272.381 17.5302C271.818 17.2563 271.53 16.8048 271.53 16.2052C271.53 15.5538 271.907 14.9542 272.44 14.7544C272.729 14.6434 273.336 14.6508 273.625 14.7692C273.95 14.9098 274.394 15.4206 274.483 15.7685C274.646 16.3532 274.372 17.049 273.839 17.4191C273.521 17.6338 272.729 17.693 272.381 17.5302Z" fill="#C9CBDB"/>
</g>
<path d="M156.946 14.05C154.212 11.3167 149.781 11.3167 147.047 14.05L141.803 19.289C141.659 19.4337 141.618 19.6514 141.698 19.839C141.778 20.0271 141.964 20.1478 142.168 20.1439H142.353C143.448 20.1419 144.534 20.3541 145.548 20.7688C145.735 20.8458 145.95 20.8024 146.092 20.6588L149.857 16.8995C151.029 15.7275 152.929 15.7275 154.101 16.8995C155.273 18.0715 155.273 19.9717 154.101 21.1437L149.412 25.8279L149.372 25.8728L147.732 27.5026C146.561 28.6722 144.664 28.6722 143.493 27.5026C142.704 26.7598 141.473 26.7598 140.683 27.5026C140.342 27.845 140.136 28.2997 140.103 28.7823C140.067 29.355 140.278 29.9158 140.683 30.3221C141.262 30.9032 141.939 31.377 142.683 31.7218C142.788 31.7718 142.893 31.8118 142.998 31.8568C143.103 31.9018 143.213 31.9367 143.318 31.9768C143.423 32.0168 143.533 32.0517 143.638 32.0817L143.933 32.1617C144.133 32.2117 144.333 32.2517 144.538 32.2867C144.784 32.3233 145.033 32.3467 145.282 32.3567H145.632H145.662L145.962 32.3217C146.072 32.3167 146.187 32.2917 146.317 32.2917H146.487L146.832 32.2417L146.992 32.2117L147.282 32.1517H147.337C148.565 31.8433 149.686 31.2075 150.582 30.3121L156.945 23.9482C159.679 21.2149 159.679 16.7833 156.946 14.05Z" fill="#56459E"/>
<path d="M147.302 23.6932C146.947 23.3357 146.553 23.0189 146.127 22.7484C145.001 22.0269 143.691 21.6436 142.353 21.6436C140.496 21.6401 138.715 22.3779 137.404 23.6932L131.045 30.0571C129.737 31.3681 129.001 33.1444 129 34.9967C128.998 38.862 132.129 41.9974 135.994 41.9999C137.848 42.0063 139.628 41.2721 140.938 39.9603L146.187 34.7112C146.283 34.6166 146.336 34.4876 146.335 34.3534C146.334 34.0773 146.109 33.8548 145.832 33.8564H145.633C144.536 33.8602 143.449 33.6496 142.433 33.2365C142.246 33.1594 142.031 33.2029 141.888 33.3464L138.114 37.1258C136.942 38.2978 135.042 38.2978 133.87 37.1258C132.698 35.9537 132.698 34.0535 133.87 32.8815L140.254 26.5027C141.425 25.3331 143.322 25.3331 144.493 26.5027C145.282 27.2455 146.513 27.2455 147.302 26.5027C147.642 26.1629 147.848 25.7121 147.882 25.2329C147.919 24.6603 147.708 24.0994 147.302 23.6932Z" fill="#56459E"/>
<line x1="164" y1="26.5" x2="174" y2="26.5" stroke="#56459E" stroke-width="3"/>
<line x1="213" y1="26.5" x2="223" y2="26.5" stroke="#56459E" stroke-width="3"/>
<line x1="181" y1="26.5" x2="191" y2="26.5" stroke="#56459E" stroke-width="3"/>
<line x1="197" y1="26.5" x2="207" y2="26.5" stroke="#56459E" stroke-width="3"/>
<line x1="97" y1="26.5" x2="107" y2="26.5" stroke="#56459E" stroke-width="3"/>
<line x1="114" y1="26.5" x2="124" y2="26.5" stroke="#56459E" stroke-width="3"/>
<line x1="82" y1="26.5" x2="92" y2="26.5" stroke="#56459E" stroke-width="3"/>
<line x1="67" y1="26.5" x2="77" y2="26.5" stroke="#56459E" stroke-width="3"/>
<defs>
<filter id="filter0_dd" x="0" y="0" width="58" height="59" filterUnits="userSpaceOnUse" color-interpolation-filters="sRGB">
<feFlood flood-opacity="0" result="BackgroundImageFix"/>
<feColorMatrix in="SourceAlpha" type="matrix" values="0 0 0 0 0 0 0 0 0 0 0 0 0 0 0 0 0 0 127 0"/>
<feOffset dy="1"/>
<feGaussianBlur stdDeviation="1"/>
<feColorMatrix type="matrix" values="0 0 0 0 0.337255 0 0 0 0 0.270588 0 0 0 0 0.619608 0 0 0 0.16 0"/>
<feBlend mode="normal" in2="BackgroundImageFix" result="effect1_dropShadow"/>
<feColorMatrix in="SourceAlpha" type="matrix" values="0 0 0 0 0 0 0 0 0 0 0 0 0 0 0 0 0 0 127 0"/>
<feOffset dy="4"/>
<feGaussianBlur stdDeviation="2"/>
<feColorMatrix type="matrix" values="0 0 0 0 0.337255 0 0 0 0 0.270588 0 0 0 0 0.619608 0 0 0 0.08 0"/>
<feBlend mode="normal" in2="effect1_dropShadow" result="effect2_dropShadow"/>
<feBlend mode="normal" in="SourceGraphic" in2="effect2_dropShadow" result="shape"/>
</filter>
<clipPath id="clip0">
<rect x="9" y="6" width="40" height="40" rx="15" fill="white"/>
</clipPath>
<clipPath id="clip1">
<rect x="225" y="1" width="75" height="50" fill="white"/>
</clipPath>
</defs>
</svg>
