<svg width="16" height="16" viewBox="0 0 16 16" fill="none" xmlns="http://www.w3.org/2000/svg">
<path d="M0.46875 9.40625C1.24541 9.40625 1.875 8.77666 1.875 8V3.28125C1.875 2.50459 1.24541 1.875 0.46875 1.875C0.209875 1.875 0 2.08487 0 2.34375V8.9375C0 9.19637 0.209875 9.40625 0.46875 9.40625Z" fill="white"/>
<path d="M14.0164 10.5047C13.8433 10.241 13.4066 10.241 13.2336 10.5047C13.0514 10.7808 12.8294 11.0732 12.5936 11.3832C11.8503 12.3637 11.2812 13.071 11.2812 13.7187C11.2812 15.011 12.3327 16 13.625 16C14.9173 16 16 15.011 16 13.7187C16 13.071 15.3997 12.3637 14.6554 11.3827C14.4206 11.0733 14.1986 10.7808 14.0164 10.5047Z" fill="white"/>
<path d="M7.53125 8.46875C8.33416 8.46875 9.08169 8.13 9.61681 7.53125H11.2812C11.5399 7.53125 11.75 7.74137 11.75 8V8.9375C11.75 9.19659 11.9597 9.40625 12.2188 9.40625H15.0312C15.2903 9.40625 15.5 9.19659 15.5 8.9375V8C15.5 5.67366 13.6076 3.75 11.2812 3.75H9.61681C9.18813 3.27031 8.62066 2.96744 8 2.862V1.875H10.3438C10.6028 1.875 10.8125 1.66534 10.8125 1.40625C10.8125 1.14716 10.6028 0.9375 10.3438 0.9375H8V0.46875C8 0.209656 7.79034 0 7.53125 0C7.27216 0 7.0625 0.209656 7.0625 0.46875V0.9375H4.71875C4.45966 0.9375 4.25 1.14716 4.25 1.40625C4.25 1.66534 4.45966 1.875 4.71875 1.875H7.0625V2.862C6.44184 2.96747 5.87437 3.27031 5.44569 3.75H2.8125V7.53125H5.44569C5.98081 8.13 6.72834 8.46875 7.53125 8.46875Z" fill="white"/>
</svg>
