<svg width="28" height="50" viewBox="0 0 28 50" fill="none" xmlns="http://www.w3.org/2000/svg">
<path d="M7.68024 37.1799L14.8345 19.4514L22.1437 37.1799L14.8345 48.8435L7.68024 37.1799Z" fill="url(#paint0_linear)"/>
<path d="M11.4724 15.0478L14.6768 0L17.9507 15.0478L14.6768 24.9478L11.4724 15.0478Z" fill="url(#paint1_linear)"/>
<path opacity="0.61" d="M14.6764 50L21.8079 25.1152L22.5314 20.981L21.8079 17.1569L16.6629 13.6428L14.5214 19.6891L13.7462 32.2984L14.6764 50Z" fill="url(#paint2_linear)"/>
<path opacity="0.61" d="M15.3037 22.1025L17.8024 20.2591L19.8441 19.5858L14.5027 29.5533L15.3037 22.1025Z" fill="url(#paint3_linear)"/>
<path opacity="0.61" d="M20.361 18.4489L19.8442 19.4307L17.8288 20.1025L20.361 18.4489Z" fill="#FFA6C2"/>
<path opacity="0.61" d="M20.7743 12.816L21.4978 15.1415L19.8958 12.1959L20.7743 12.816Z" fill="#F4719B"/>
<path opacity="0.61" d="M18.4489 9.457L20.4822 12.6093L18.0017 10.8006L18.4489 9.457Z" fill="#FFC0D4"/>
<path opacity="0.61" d="M14.4525 18.8417L13.4105 24.9636L9.86085 12.9194L14.4525 18.8417Z" fill="#E195AD"/>
<path opacity="0.61" d="M13.8506 34.8967L25.5287 30.2313L26.3555 28.6293L25.9421 21.4978L23.2549 19.7924L20.7371 18.2349L14.3767 30.1951L13.8506 34.8967Z" fill="url(#paint4_linear)"/>
<path opacity="0.61" d="M13.7937 34.9577L13.093 41.2262L15.0753 48.4311L22.0518 37.2687L25.5172 30.2427L13.7937 34.9577Z" fill="#A72850"/>
<path opacity="0.61" d="M13.3721 45.7635L18.1988 40.2908L16.9358 32.7697L15.4475 23.5639L12.5721 17.9486L7.98627 31.1667L11.0487 43.2292L13.3721 45.7635Z" fill="url(#paint5_linear)"/>
<path opacity="0.61" d="M3.87166 19.0897L3.56366 19.348L2.75439 21.3314L4.18586 19.623L3.87166 19.0897Z" fill="#F580A6"/>
<path opacity="0.61" d="M4.27269 37.1809L0 27.8396L2.78231 21.2807L4.27269 19.4917L10.3355 29.3176L11.7266 44.3361L4.27269 37.1809Z" fill="url(#paint6_linear)"/>
<path opacity="0.61" d="M3.44281 19.2964L3.57407 18.4809L3.80248 18.9295L3.44281 19.2964Z" fill="#F580A6"/>
<g opacity="0.61">
<path d="M11.5366 14.333L10.9096 14.6624L10.9096 13.8172L11.1106 13.0744L11.5366 14.333Z" fill="url(#paint7_linear)"/>
<path d="M11.6111 12.1442L11.4435 13.0744L11.2494 12.5059L11.6111 12.1442Z" fill="url(#paint8_linear)"/>
</g>
<g opacity="0.61">
<path d="M20.878 17.6886L22.133 18.5017L22.6905 15.9806L22.4683 13.7552L21.2987 15.6222L20.878 17.6886Z" fill="url(#paint9_linear)"/>
<path d="M21.309 10.9567L21.2891 13.7393L22.3518 12.053L21.309 10.9567Z" fill="url(#paint10_linear)"/>
</g>
<g opacity="0.61">
<path d="M15.7769 17.7084L15.4417 18.9032L14.7594 16.425L14.8607 14.1931L16.1112 15.9813L15.7769 17.7084Z" fill="url(#paint11_linear)"/>
<path d="M15.5733 11.6409L16.0843 12.633L15.7398 14.4132L14.6042 12.7984L15.5733 11.6409Z" fill="url(#paint12_linear)"/>
</g>
<path opacity="0.61" d="M6.09795 26.8205L5.02572 18.0353L6.09796 7.07972L10.2838 14.8314L13.5912 29.3528L13.5912 34.8306L9.48218 37.5526L6.09795 26.8205Z" fill="url(#paint13_linear)"/>
<path opacity="0.61" d="M12.0585 21.2715L10.7489 28.526L6.56305 24.7535L10.0342 14.0563L12.0585 21.2715Z" fill="url(#paint14_linear)"/>
<path opacity="0.61" d="M24.9086 17.4153L26.503 21.1152L20.8778 18.5005L21.808 17.0019L24.9086 17.4153Z" fill="url(#paint15_linear)"/>
<path opacity="0.61" d="M20.6193 13.623L21.5261 15.0829L21.7562 17.0019L16.8235 13.623L17.9635 11.0644L19.6297 12.1142L20.6193 13.623Z" fill="url(#paint16_linear)"/>
<path opacity="0.61" d="M24.2521 15.5263L24.8569 16.9502L22.118 16.6918L23.0836 13.5399L24.2521 15.5263Z" fill="#FFC2D6"/>
<defs>
<linearGradient id="paint0_linear" x1="14.912" y1="19.4514" x2="14.912" y2="48.8435" gradientUnits="userSpaceOnUse">
<stop stop-color="#B13159"/>
<stop offset="1" stop-color="#68142E"/>
</linearGradient>
<linearGradient id="paint1_linear" x1="14.7115" y1="0" x2="14.7115" y2="24.9478" gradientUnits="userSpaceOnUse">
<stop stop-color="#FFAEC7"/>
<stop offset="1" stop-color="#C12153"/>
</linearGradient>
<linearGradient id="paint2_linear" x1="21.444" y1="22.9623" x2="17.2158" y2="44.4188" gradientUnits="userSpaceOnUse">
<stop stop-color="#F05987"/>
<stop offset="1" stop-color="#6F0023"/>
</linearGradient>
<linearGradient id="paint3_linear" x1="17.1734" y1="19.5858" x2="17.1734" y2="29.5533" gradientUnits="userSpaceOnUse">
<stop stop-color="#FF83B4"/>
<stop offset="1" stop-color="#B70049"/>
</linearGradient>
<linearGradient id="paint4_linear" x1="23.5122" y1="14.511" x2="19.284" y2="35.9675" gradientUnits="userSpaceOnUse">
<stop stop-color="#FF86AB"/>
<stop offset="1" stop-color="#B13159"/>
</linearGradient>
<linearGradient id="paint5_linear" x1="12.4812" y1="17.5652" x2="13.1406" y2="45.7676" gradientUnits="userSpaceOnUse">
<stop stop-color="#FF86AB"/>
<stop offset="1" stop-color="#8F2647"/>
</linearGradient>
<linearGradient id="paint6_linear" x1="2.18596" y1="17.007" x2="11.7266" y2="44.0385" gradientUnits="userSpaceOnUse">
<stop stop-color="#E7658E"/>
<stop offset="1" stop-color="#81072D"/>
</linearGradient>
<linearGradient id="paint7_linear" x1="10.8898" y1="13.2156" x2="11.855" y2="13.7047" gradientUnits="userSpaceOnUse">
<stop stop-color="#FFC0D5"/>
<stop offset="1" stop-color="#F53E7A"/>
</linearGradient>
<linearGradient id="paint8_linear" x1="10.8898" y1="13.2156" x2="11.855" y2="13.7047" gradientUnits="userSpaceOnUse">
<stop stop-color="#FFC0D5"/>
<stop offset="1" stop-color="#F53E7A"/>
</linearGradient>
<linearGradient id="paint9_linear" x1="23.1574" y1="14.1869" x2="19.4156" y2="15.5996" gradientUnits="userSpaceOnUse">
<stop stop-color="#FFC0D5"/>
<stop offset="1" stop-color="#F53E7A"/>
</linearGradient>
<linearGradient id="paint10_linear" x1="23.1574" y1="14.1869" x2="19.4156" y2="15.5996" gradientUnits="userSpaceOnUse">
<stop stop-color="#FFC0D5"/>
<stop offset="1" stop-color="#F53E7A"/>
</linearGradient>
<linearGradient id="paint11_linear" x1="12.506" y1="13.4878" x2="15.8133" y2="18.9139" gradientUnits="userSpaceOnUse">
<stop stop-color="#FFC0D5"/>
<stop offset="1" stop-color="#F53E7A"/>
</linearGradient>
<linearGradient id="paint12_linear" x1="12.506" y1="13.4878" x2="15.8133" y2="18.9139" gradientUnits="userSpaceOnUse">
<stop stop-color="#FFC0D5"/>
<stop offset="1" stop-color="#F53E7A"/>
</linearGradient>
<linearGradient id="paint13_linear" x1="8.85568" y1="8.7284" x2="8.65005" y2="37.2666" gradientUnits="userSpaceOnUse">
<stop stop-color="#E7658E"/>
<stop offset="1" stop-color="#81072D"/>
</linearGradient>
<linearGradient id="paint14_linear" x1="11.4801" y1="25.4737" x2="7.34259" y2="15.1333" gradientUnits="userSpaceOnUse">
<stop stop-color="#B73C63"/>
<stop offset="1" stop-color="#FFA5C1"/>
</linearGradient>
<linearGradient id="paint15_linear" x1="26.6754" y1="20.9113" x2="21.6327" y2="16.6473" gradientUnits="userSpaceOnUse">
<stop stop-color="#E84E7F"/>
<stop offset="1" stop-color="#FFBFD3"/>
</linearGradient>
<linearGradient id="paint16_linear" x1="18.914" y1="15.5549" x2="20.8777" y2="11.8858" gradientUnits="userSpaceOnUse">
<stop stop-color="#E84E7F"/>
<stop offset="1" stop-color="#FFBFD3"/>
</linearGradient>
</defs>
</svg>
