<svg width="28" height="24" viewBox="0 0 28 24" fill="none" xmlns="http://www.w3.org/2000/svg">
<path d="M28 2.92249C26.9698 3.40217 25.8626 3.72637 24.7006 3.87218C25.8867 3.12572 26.7975 1.94377 27.2264 0.535471C26.1165 1.22656 24.8871 1.7285 23.5786 1.99904C22.5307 0.826873 21.0377 0.0943909 19.3855 0.0943909C16.2129 0.0943909 13.6408 2.79475 13.6408 6.12543C13.6408 6.59813 13.6917 7.05845 13.7896 7.49986C9.01533 7.24835 4.7825 4.84724 1.94922 1.19838C1.45474 2.08915 1.17145 3.12518 1.17145 4.23046C1.17145 6.32285 2.1857 8.1689 3.72709 9.25042C2.78535 9.21912 1.89965 8.94783 1.12506 8.49611C1.12465 8.52127 1.12465 8.54654 1.12465 8.57191C1.12465 11.4941 3.1048 13.9318 5.73273 14.4857C5.25065 14.6236 4.74317 14.6973 4.2192 14.6973C3.84907 14.6973 3.48917 14.6595 3.13849 14.5891C3.86945 16.9852 5.99093 18.7289 8.50467 18.7776C6.53866 20.3952 4.06168 21.3594 1.37035 21.3594C0.906705 21.3594 0.449409 21.3309 0 21.2752C2.54221 22.9864 5.5618 23.9848 8.80588 23.9848C19.3721 23.9848 25.1501 14.7947 25.1501 6.8248C25.1501 6.56329 25.1446 6.30318 25.1335 6.04457C26.2558 5.19424 27.2298 4.13197 28 2.92249Z" fill="white"/>
</svg>
